{"title":"Disturbing.Behavior.1998.DVDRiP.XviD.SWESUB-Zen_Bud ","uid":5979530,"size":1465611150,"categoryP":"video","categoryS":"movies","magnet":"?xt=urn:btih:d3ceebbc875c36b891f0248a87fa59c3eca3e680&amp;dn=Disturbing.Behavior.1998.DVDRiP.XviD.SWESUB-Zen_Bud+&amp;tr=udp%3A%2F%2Ftracker.openbittorrent.com%3A80&amp;tr=udp%3A%2F%2Fopen.demonii.com%3A1337&amp;tr=udp%3A%2F%2Ftracker.coppersurfer.tk%3A6969&amp;tr=udp%3A%2F%2Fexodus.desync.com%3A6969","seeders":1,"leechers":1,"uploader":"Zen_Bud","files":-1,"time":1290545501,"description":"******* Disturbing.Behavior.1998.DVDRiP.XviD.SWESUB-Zen_Bud *******\n\nFormat                           : AVI\nFormat profile                   : OpenDML\nFile size                        : 1.36 GiB\nDuration                         : 1h 23mn\nOverall bit rate                 : 2 335 Kbps\nWriting application              : AVI-Mux GUI 1.17.8.3, \n\nVideo\n\nFormat                           : MPEG-4 Visual\nCodec ID                         : XVID\nDuration                         : 1h 23mn\nBit rate                         : 2 149 Kbps\nWidth                            : 720 pixels\nHeight                           : 400 pixels\nDisplay aspect ratio             : 16:9\nStream size                      : 1.26 GiB (92%)\nWriting library                  : XviD 1.2.1 (UTC 2008-12-04)\n\nAudio\n\nFormat                           : MPEG Audio\nCodec ID/Hint                    : MP3\nDuration                         : 1h 23mn\nNominal bit rate                 : 192 Kbps\nChannel(s)                       : 2 channels\nSampling rate                    : 48.0 KHz\nStream size                      : 106 MiB (8%)\nWriting library                  : LAME3.98r\n\n******************************************************************************\n\nThe new kid in town stumbles across something sinister about the town's method of transforming its unruly teens into upstanding citizens.\n\n\n******************************************************************************","torrent":{"xt":"urn:btih:d3ceebbc875c36b891f0248a87fa59c3eca3e680","amp;dn":"Disturbing.Behavior.1998.DVDRiP.XviD.SWESUB-Zen_Bud+","amp;tr":["udp%3A%2F%2Ftracker.openbittorrent.com%3A80","udp%3A%2F%2Fopen.demonii.com%3A1337","udp%3A%2F%2Ftracker.coppersurfer.tk%3A6969","udp%3A%2F%2Fexodus.desync.com%3A6969"],"infoHash":"d3ceebbc875c36b891f0248a87fa59c3eca3e680","infoHashBuffer":{"type":"Buffer","data":[211,206,235,188,135,92,54,184,145,240,36,138,135,250,89,195,236,163,230,128]},"announce":[],"urlList":[]}}